<?xml version="1.0" encoding="UTF-8"?>
<svg xmlns="http://www.w3.org/2000/svg" viewBox="0 0 1240 620" width="1240" height="620"><defs><marker id="a0" viewBox="0 0 10 10" refX="9.5" refY="5" markerWidth="6" markerHeight="6" orient="auto-start-reverse"><path d="M 0 0 L 10 5 L 0 10 z" fill="#64748b"/></marker><marker id="a1" viewBox="0 0 10 10" refX="9.5" refY="5" markerWidth="6" markerHeight="6" orient="auto-start-reverse"><path d="M 0 0 L 10 5 L 0 10 z" fill="#1d4ed8"/></marker><marker id="a2" viewBox="0 0 10 10" refX="9.5" refY="5" markerWidth="6" markerHeight="6" orient="auto-start-reverse"><path d="M 0 0 L 10 5 L 0 10 z" fill="#047857"/></marker><marker id="a3" viewBox="0 0 10 10" refX="9.5" refY="5" markerWidth="6" markerHeight="6" orient="auto-start-reverse"><path d="M 0 0 L 10 5 L 0 10 z" fill="#b45309"/></marker><marker id="a4" viewBox="0 0 10 10" refX="9.5" refY="5" markerWidth="6" markerHeight="6" orient="auto-start-reverse"><path d="M 0 0 L 10 5 L 0 10 z" fill="#b91c1c"/></marker><marker id="a5" viewBox="0 0 10 10" refX="9.5" refY="5" markerWidth="6" markerHeight="6" orient="auto-start-reverse"><path d="M 0 0 L 10 5 L 0 10 z" fill="#475569"/></marker><marker id="a6" viewBox="0 0 10 10" refX="9.5" refY="5" markerWidth="6" markerHeight="6" orient="auto-start-reverse"><path d="M 0 0 L 10 5 L 0 10 z" fill="#6d28d9"/></marker></defs><style>text{font-family:"Microsoft YaHei","PingFang SC","Hiragino Sans GB","Source Han Sans SC","Noto Sans CJK SC",sans-serif;}</style><rect width="1240" height="620" fill="#ffffff"/><text x="620" y="36" font-size="20" text-anchor="middle" font-weight="700" fill="#0f172a">图 3-5  系统部署拓扑图</text><rect x="20" y="120" width="180" height="76" rx="8" fill="#f1f5f9" stroke="#475569" stroke-width="1.6"/><text x="110" y="150" font-size="13.5" text-anchor="middle" font-weight="600" fill="#0f172a">开发者</text><text x="110" y="172" font-size="11.5" text-anchor="middle" font-weight="400" fill="#64748b">git push</text><rect x="240" y="120" width="190" height="76" rx="8" fill="#f1f5f9" stroke="#475569" stroke-width="1.6"/><text x="335" y="150" font-size="12.5" text-anchor="middle" font-weight="600" fill="#0f172a">GitHub / GitLab</text><text x="335" y="172" font-size="11.5" text-anchor="middle" font-weight="400" fill="#64748b">Webhook 事件</text><line x1="200" y1="158" x2="240" y2="158" stroke="#475569" stroke-width="1.6" marker-end="url(#a5)"/><text x="220" y="148" font-size="11" text-anchor="middle" font-weight="400" fill="#64748b">①</text><line x1="430" y1="158" x2="470" y2="158" stroke="#475569" stroke-width="1.6" marker-end="url(#a5)"/><text x="450" y="148" font-size="11" text-anchor="middle" font-weight="400" fill="#64748b">②</text><rect x="470" y="60" width="330" height="520" rx="10" fill="#ecfdf5" stroke="#047857" stroke-width="1.6"/><text x="492" y="88" font-size="13.5" text-anchor="start" font-weight="700" fill="#047857">CI 服务器（单二进制）</text><rect x="495" y="100" width="280" height="62" rx="8" fill="#ffffff" stroke="#047857" stroke-width="1.6"/><text x="635" y="126" font-size="12.5" text-anchor="middle" font-weight="600" fill="#0f172a">Access 层</text><text x="635" y="148" font-size="11" text-anchor="middle" font-weight="400" fill="#64748b">Webhook · REST · Auth</text><rect x="495" y="178" width="280" height="84" rx="8" fill="#ffffff" stroke="#047857" stroke-width="1.6"/><text x="635" y="204" font-size="12.5" text-anchor="middle" font-weight="600" fill="#0f172a">Core 层</text><text x="635" y="226" font-size="11" text-anchor="middle" font-weight="400" fill="#64748b">Scheduler · 状态机</text><text x="635" y="247" font-size="11" text-anchor="middle" font-weight="400" fill="#64748b">Worker Pool（并发构建）</text><rect x="495" y="278" width="280" height="58" rx="8" fill="#ffffff" stroke="#047857" stroke-width="1.6"/><text x="635" y="304" font-size="12.5" text-anchor="middle" font-weight="600" fill="#0f172a">Log Pipe</text><text x="635" y="326" font-size="11" text-anchor="middle" font-weight="400" fill="#64748b">实时日志 → SSE</text><rect x="495" y="352" width="280" height="58" rx="8" fill="#ffffff" stroke="#047857" stroke-width="1.6"/><text x="635" y="378" font-size="12.5" text-anchor="middle" font-weight="600" fill="#0f172a">Diagnoser</text><text x="635" y="400" font-size="11" text-anchor="middle" font-weight="400" fill="#64748b">LLM 诊断（HTTP）</text><rect x="495" y="426" width="280" height="100" rx="8" fill="#ffffff" stroke="#047857" stroke-width="1.6"/><text x="635" y="452" font-size="12.5" text-anchor="middle" font-weight="600" fill="#0f172a">Storage</text><text x="635" y="474" font-size="11" text-anchor="middle" font-weight="400" fill="#64748b">SQLite / PostgreSQL</text><text x="635" y="495" font-size="11" text-anchor="middle" font-weight="400" fill="#64748b">对象存储 · 密钥库</text><rect x="880" y="110" width="320" height="90" rx="8" fill="#fef2f2" stroke="#b91c1c" stroke-width="1.6"/><text x="1040" y="140" font-size="12.5" text-anchor="middle" font-weight="600" fill="#0f172a">本机 Docker daemon</text><text x="1040" y="162" font-size="11" text-anchor="middle" font-weight="400" fill="#64748b">构建容器（隔离）</text><text x="1040" y="183" font-size="11" text-anchor="middle" font-weight="400" fill="#64748b">产物镜像 / tar 包</text><rect x="880" y="260" width="320" height="170" rx="8" fill="#fffbeb" stroke="#b45309" stroke-width="1.6"/><text x="1040" y="290" font-size="12.5" text-anchor="middle" font-weight="600" fill="#0f172a">目标主机（VPS）</text><text x="1040" y="314" font-size="11" text-anchor="middle" font-weight="400" fill="#64748b">Docker + docker-compose</text><text x="1040" y="336" font-size="11" text-anchor="middle" font-weight="400" fill="#64748b">应用容器（新版本）</text><text x="1040" y="358" font-size="11" text-anchor="middle" font-weight="400" fill="#64748b">反向代理 / HTTPS</text><text x="1040" y="380" font-size="11" text-anchor="middle" font-weight="400" fill="#64748b">健康检查端点</text><text x="1040" y="404" font-size="11" text-anchor="middle" font-weight="400" fill="#64748b">保留最近 K 个版本（回滚）</text><rect x="880" y="490" width="320" height="90" rx="8" fill="#f5f3ff" stroke="#6d28d9" stroke-width="1.6"/><text x="1040" y="520" font-size="12.5" text-anchor="middle" font-weight="600" fill="#0f172a">LLM API</text><text x="1040" y="542" font-size="11" text-anchor="middle" font-weight="400" fill="#64748b">OpenAI 兼容协议</text><text x="1040" y="563" font-size="11" text-anchor="middle" font-weight="400" fill="#64748b">云端 / vLLM / Ollama</text><line x1="800" y1="150" x2="880" y2="150" stroke="#64748b" stroke-width="1.8" marker-end="url(#a0)"/><text x="840" y="142" font-size="10.5" text-anchor="middle" font-weight="400" fill="#64748b">③ docker build</text><line x1="800" y1="300" x2="880" y2="300" stroke="#b91c1c" stroke-width="1.8" marker-end="url(#a4)"/><text x="840" y="292" font-size="10.5" text-anchor="middle" font-weight="400" fill="#64748b">④ SSH 部署</text><line x1="880" y1="350" x2="800" y2="350" stroke="#b91c1c" stroke-width="1.8" marker-end="url(#a4)" stroke-dasharray="5,4"/><text x="840" y="342" font-size="10.5" text-anchor="middle" font-weight="400" fill="#64748b">⑤ 健康检查</text><line x1="800" y1="505" x2="880" y2="505" stroke="#b45309" stroke-width="1.8" marker-end="url(#a3)" stroke-dasharray="5,4"/><text x="840" y="497" font-size="10.5" text-anchor="middle" font-weight="400" fill="#64748b">⑥ 诊断请求</text><line x1="880" y1="550" x2="800" y2="550" stroke="#b45309" stroke-width="1.8" marker-end="url(#a3)" stroke-dasharray="5,4"/><text x="840" y="542" font-size="10.5" text-anchor="middle" font-weight="400" fill="#64748b">⑦ 诊断建议</text></svg>